<?xml version="1.0" standalone="no"?>
<!DOCTYPE svg PUBLIC "-//W3C//DTD SVG 20010904//EN"
 "http://www.w3.org/TR/2001/REC-SVG-20010904/DTD/svg10.dtd">
<svg version="1.0" xmlns="http://www.w3.org/2000/svg"
 width="768.000000pt" height="888.000000pt" viewBox="0 0 768.000000 888.000000"
 preserveAspectRatio="xMidYMid meet">
<metadata>
Created by potrace 1.10, written by Peter Selinger 2001-2011
</metadata>
<g transform="translate(0.000000,888.000000) scale(0.100000,-0.100000)"
fill="#0000ff" stroke="none">
<path d="M5109 8209 c-13 -18 -80 -81 -149 -142 -141 -124 -219 -208 -245
-267 -37 -82 -85 -55 -126 72 -29 90 -39 98 -78 56 -86 -95 -169 -265 -242
-498 -66 -208 3 -482 166 -657 72 -78 146 -126 247 -160 71 -24 109 -27 115
-8 1 6 -22 39 -53 75 -74 88 -112 167 -120 255 -4 39 -15 93 -25 120 -25 65
-24 107 1 130 18 16 25 17 54 7 64 -24 69 -20 62 51 -13 121 -8 179 23 287 32
110 70 176 138 241 39 38 77 56 86 42 3 -5 8 -28 12 -53 9 -59 28 -94 91 -167
30 -34 68 -89 85 -123 27 -56 33 -61 55 -56 33 9 64 -10 64 -38 0 -13 7 -43
15 -67 9 -24 18 -71 22 -104 8 -84 23 -105 76 -105 32 0 49 6 64 23 43 47 94
152 114 237 36 155 40 178 34 235 -11 102 -33 183 -75 270 -54 113 -81 139
-96 93 -14 -48 -65 -141 -99 -183 -39 -47 -57 -58 -80 -49 -12 5 -14 29 -12
137 2 132 -7 195 -50 330 -18 57 -39 61 -74 16z"/>
<path d="M5040 6978 c-25 -13 -55 -38 -67 -57 -80 -120 76 -289 282 -306 34
-3 105 -9 160 -14 94 -9 135 -4 135 18 0 15 -66 99 -134 172 -38 41 -84 97
-102 125 -24 37 -44 56 -74 68 -59 24 -146 21 -200 -6z"/>
<path d="M5496 6927 c-17 -13 -15 -17 38 -74 70 -75 111 -129 160 -210 46 -77
73 -100 180 -152 130 -63 138 -57 81 65 -101 220 -212 340 -335 364 -30 6 -66
13 -80 16 -14 2 -34 -2 -44 -9z"/>
<path d="M5976 6812 c-4 -7 0 -17 70 -149 49 -91 84 -179 114 -283 12 -41 29
-88 37 -105 19 -37 83 -105 99 -105 23 0 25 83 5 195 -48 265 -125 385 -282
440 -21 8 -40 11 -43 7z"/>
<path d="M6415 6458 c4 -34 11 -75 16 -92 14 -49 10 -254 -6 -341 -22 -114
-25 -240 -5 -240 31 0 134 242 162 380 24 122 23 142 -15 198 -43 65 -129 157
-146 157 -10 0 -11 -14 -6 -62z"/>
<path d="M6680 6031 c-5 -11 -31 -73 -58 -138 -68 -169 -149 -300 -246 -402
-45 -47 -88 -93 -94 -101 -6 -8 -22 -28 -35 -45 -28 -35 -57 -89 -57 -106 0
-38 157 47 276 149 160 137 274 357 274 527 0 108 -31 169 -60 116z"/>
<path d="M3000 5875 c-716 -71 -1343 -410 -1792 -970 -174 -217 -371 -586
-438 -820 -41 -144 -71 -269 -80 -338 -6 -45 -18 -133 -26 -194 -19 -132 -15
-507 5 -633 51 -306 131 -554 262 -813 149 -296 392 -600 639 -803 19 -16 37
-31 40 -35 6 -7 111 -84 160 -118 75 -52 263 -161 277 -161 8 0 51 -18 96 -39
78 -38 232 -96 287 -108 14 -3 30 -9 35 -13 6 -4 35 -11 65 -15 30 -4 61 -11
70 -15 62 -32 211 -53 501 -71 195 -12 197 -12 224 9 32 26 45 28 45 7 0 -8
10 -21 23 -29 47 -29 494 57 717 139 97 36 162 63 233 97 43 21 80 38 83 38
10 0 148 82 217 129 38 25 76 51 85 56 43 26 150 113 199 163 23 23 56 47 75
54 34 11 138 104 138 124 0 6 22 37 50 68 27 31 53 69 57 84 3 15 20 46 38 69
18 24 37 65 44 97 l13 57 35 -3 c31 -3 38 1 54 29 10 17 23 50 30 72 7 23 16
41 20 41 4 0 24 34 44 75 21 42 41 78 45 80 4 3 11 20 14 38 3 18 15 49 26 70
11 21 27 61 35 90 7 29 20 67 27 85 22 57 7 66 -112 72 -71 3 -105 9 -108 18
-3 9 23 12 110 11 114 0 148 5 148 23 0 6 14 33 31 61 27 43 29 53 19 73 -9
15 -10 43 -6 88 6 51 12 68 30 79 24 16 22 5 52 392 7 92 -2 104 -86 115 -135
17 -321 126 -449 264 -26 26 -63 59 -83 72 -21 13 -37 29 -35 34 3 14 -59 102
-118 169 -53 58 -163 219 -215 312 -120 217 -234 495 -265 646 -3 17 -13 37
-21 43 -7 7 -11 16 -8 22 11 17 14 167 4 192 -15 42 6 134 52 224 l42 84 -24
19 c-38 29 -174 105 -274 153 -401 192 -921 284 -1356 241z m329 -151 c13 -9
59 -20 104 -25 166 -18 296 -53 537 -144 53 -20 261 -147 274 -167 8 -13 7
-21 -2 -30 -10 -10 -30 -9 -100 6 -48 10 -107 22 -132 26 -25 4 -81 15 -125
24 -196 41 -368 54 -618 48 -213 -5 -595 -92 -788 -180 -24 -11 -69 -31 -99
-45 -76 -33 -269 -149 -360 -215 -423 -309 -738 -763 -882 -1272 -51 -177 -64
-239 -83 -375 -18 -122 -29 -150 -57 -140 -23 9 -36 72 -50 235 -8 111 -8 164
1 225 6 44 16 123 22 175 39 334 181 657 440 1006 102 137 384 384 576 502
194 121 403 210 623 267 36 9 88 23 115 31 79 22 288 44 420 44 66 0 127 5
135 10 20 13 22 13 49 -6z m-7 -524 c3 -25 7 -64 7 -87 1 -51 14 -57 108 -48
39 4 94 2 128 -4 51 -10 65 -17 98 -53 49 -53 71 -97 86 -168 12 -57 10 -88
-24 -335 -8 -55 -21 -154 -30 -220 -65 -494 -61 -449 -34 -469 13 -9 33 -16
46 -16 12 0 25 -5 29 -11 3 -6 36 -24 73 -41 36 -17 71 -37 76 -44 6 -6 109
-62 230 -123 121 -62 228 -116 238 -121 9 -6 25 -14 35 -20 9 -5 55 -29 101
-52 94 -48 150 -100 183 -168 52 -106 26 -236 -61 -311 -26 -23 -133 -85 -237
-138 -104 -54 -233 -120 -286 -148 -189 -99 -243 -103 -362 -26 -38 25 -81 49
-96 53 -15 4 -45 20 -68 35 -51 33 -79 27 -86 -18 -3 -18 -15 -90 -26 -161
-11 -72 -29 -148 -41 -172 -21 -44 -81 -103 -129 -128 -14 -7 -77 -40 -140
-73 -349 -183 -492 -247 -551 -248 -20 0 -35 -3 -32 -8 19 -32 -99 25 -150 72
-61 56 -116 239 -88 289 6 10 6 23 0 34 -6 10 -5 19 1 23 5 3 10 26 10 50 0
24 4 47 10 50 5 3 10 16 9 28 0 12 3 34 7 50 6 24 3 28 -25 38 -35 12 -42 39
-9 39 26 0 58 27 58 50 0 10 8 28 19 41 31 40 35 66 12 81 -20 12 -28 48 -14
62 4 4 8 23 10 44 2 33 16 138 26 198 2 11 7 26 11 33 14 21 -5 72 -29 81 -24
9 -45 59 -45 107 0 28 -40 58 -155 117 -49 25 -130 69 -180 96 -49 28 -106 57
-125 66 -53 23 -102 46 -132 61 -14 7 -33 13 -42 13 -9 0 -19 7 -22 15 -4 8
-10 15 -15 15 -10 0 -67 38 -84 56 -5 5 -27 22 -47 38 -29 21 -38 34 -38 57 0
30 0 30 -44 24 -27 -4 -46 -3 -50 4 -12 18 15 91 34 91 31 0 52 26 61 76 20
106 61 151 208 229 52 28 115 62 140 77 25 14 118 63 206 107 148 75 166 82
237 88 74 6 81 4 144 -27 65 -32 68 -32 81 -14 8 10 19 19 26 20 7 0 18 2 25
2 6 1 12 11 12 23 0 12 14 34 30 49 17 16 30 38 30 52 0 13 12 47 26 76 31 62
86 101 281 199 108 54 131 69 122 80 -16 18 -11 21 50 33 29 5 57 12 62 16 22
13 50 95 61 176 9 71 15 88 27 86 10 -2 18 -19 23 -48z m1509 -2397 c68 -22
145 -97 184 -178 16 -33 48 -79 71 -101 46 -45 83 -129 91 -205 11 -99 -46
-218 -134 -281 -48 -35 -267 -149 -312 -163 -14 -4 -48 -22 -76 -41 -29 -18
-130 -72 -226 -119 -96 -47 -201 -101 -234 -120 -87 -50 -149 -67 -197 -55
-47 13 -55 9 -106 -56 -86 -109 -265 -188 -379 -167 -64 12 -77 5 -105 -55
-13 -26 -41 -65 -64 -87 -40 -39 -323 -197 -377 -210 -15 -4 -27 -11 -27 -16
0 -13 -44 -11 -71 3 -62 33 -98 70 -120 126 -12 31 -30 64 -39 72 -10 8 -21
26 -25 40 -4 14 -11 27 -14 30 -17 13 -41 62 -41 84 0 13 -8 27 -17 32 -10 4
-79 9 -153 11 -273 6 -360 16 -338 39 3 3 104 7 223 9 120 2 221 7 226 12 4 4
5 30 1 58 -5 36 -13 52 -29 60 -40 20 -51 36 -58 83 -4 33 -1 59 10 87 17 41
61 95 78 95 6 0 25 12 44 26 19 14 67 34 106 45 40 10 104 30 142 44 63 23 80
25 161 20 l91 -6 42 66 c52 81 77 104 163 155 74 44 190 75 250 66 34 -6 37
-4 47 27 13 38 71 97 118 121 50 25 138 30 213 12 58 -14 66 -14 82 1 10 8 20
25 24 37 3 11 15 41 26 66 12 25 24 51 27 58 6 13 58 42 221 122 47 24 99 53
116 66 32 23 117 65 184 90 50 18 139 17 201 -3z m530 -766 c-13 -13 -15 31
-3 60 5 14 8 10 10 -16 2 -18 -1 -38 -7 -44z m-1988 -1116 c1 -106 -4 -133
-20 -117 -9 9 -6 213 3 228 12 20 16 -4 17 -111z"/>
<path d="M3375 4707 c-22 -13 -116 -63 -210 -111 -93 -48 -177 -96 -186 -106
-15 -17 -28 -92 -64 -370 -9 -69 -19 -139 -21 -156 -7 -47 -26 -59 -73 -45
-21 6 -50 11 -64 11 -14 0 -29 5 -32 10 -3 6 -15 10 -26 10 -23 0 -151 78
-208 126 -50 43 -123 84 -149 84 -27 0 -429 -204 -457 -231 -20 -20 -20 -20 0
-35 11 -9 97 -54 190 -100 94 -47 199 -101 235 -120 93 -50 117 -56 151 -38
30 15 49 12 49 -8 0 -18 33 -37 63 -38 15 0 46 -13 69 -30 22 -16 47 -30 53
-30 7 0 18 -7 25 -15 7 -8 20 -15 29 -15 10 0 26 -10 37 -22 27 -31 30 -108 9
-246 -8 -59 -22 -156 -31 -217 -8 -60 -19 -137 -24 -170 -5 -33 -12 -80 -15
-105 -3 -25 -17 -126 -31 -225 -39 -269 -39 -274 -21 -281 10 -3 51 16 104 48
48 30 111 65 138 78 28 13 68 36 90 50 22 15 49 30 61 34 40 12 64 44 57 77
-4 23 -1 35 16 50 11 11 21 28 21 39 0 11 7 35 16 54 16 33 16 35 -11 70 -26
35 -27 37 -20 143 11 193 13 283 4 289 -5 3 -9 22 -9 42 0 31 -7 43 -47 78
-37 34 -46 48 -46 75 0 23 -9 41 -28 60 -15 15 -29 37 -31 50 -2 18 -9 23 -25
22 -11 -1 -27 4 -33 12 -7 8 -21 15 -31 15 -10 0 -23 9 -29 20 -9 16 -15 18
-31 10 -15 -9 -21 -7 -26 7 -6 19 -71 83 -84 83 -4 0 -11 9 -14 20 -5 15 -15
20 -40 20 -19 0 -36 4 -39 9 -3 5 -44 12 -91 16 -47 4 -87 10 -89 14 -3 4 -3
17 1 29 4 18 15 22 73 28 44 4 71 11 74 20 8 21 116 20 116 -1 0 -8 7 -15 15
-15 8 0 15 7 15 15 0 18 20 19 55 3 19 -9 28 -9 37 0 7 7 23 11 37 11 17 -1
20 -3 9 -6 -10 -2 -18 -9 -18 -15 0 -12 93 -2 122 13 11 6 32 8 47 4 19 -4 32
-1 41 10 16 20 74 19 91 -1 12 -14 14 -14 25 1 8 11 20 15 32 11 11 -4 24 0
32 9 7 8 16 15 21 15 4 0 21 12 36 26 l28 26 -23 18 c-12 10 -27 20 -34 22 -8
3 -7 18 5 54 9 27 19 70 22 96 4 34 12 50 30 62 15 10 25 26 25 40 0 13 7 54
14 92 16 76 68 387 70 419 2 29 -31 29 -79 2z"/>
<path d="M3733 3378 c-5 -13 -10 -41 -12 -63 -1 -22 -9 -83 -17 -135 -9 -52
-18 -121 -21 -152 l-5 -57 39 -24 c21 -13 67 -38 102 -55 73 -35 63 -37 179
39 40 26 83 51 95 55 12 4 40 18 62 32 22 14 60 33 84 41 61 22 73 44 41 74
-14 13 -45 32 -70 43 -25 10 -134 65 -243 121 -108 57 -203 103 -211 103 -7 0
-17 -10 -23 -22z"/>
<path d="M4600 2602 c-114 -57 -140 -75 -140 -94 0 -16 79 -174 190 -382 30
-57 53 -76 74 -61 76 54 109 75 117 75 23 0 109 51 129 77 42 54 12 154 -60
196 -17 11 -33 32 -41 55 -6 20 -15 42 -19 47 -5 6 -10 23 -12 40 -2 21 -14
37 -43 57 -56 39 -102 36 -195 -10z m158 -69 c26 -50 -33 -152 -87 -153 -42 0
-71 37 -71 91 0 42 3 50 28 63 39 22 119 21 130 -1z m116 -182 c10 -11 18 -36
19 -56 1 -32 -6 -42 -48 -80 -66 -58 -96 -60 -130 -5 -14 22 -25 48 -25 59 0
29 40 69 85 85 55 20 79 19 99 -3z"/>
<path d="M4268 2413 c-9 -10 -33 -67 -54 -128 -21 -61 -49 -120 -62 -134 -29
-28 -57 -26 -210 21 -96 29 -104 30 -119 15 -16 -15 -9 -32 93 -233 60 -118
117 -220 127 -226 21 -11 64 12 74 39 3 8 -15 58 -41 112 -29 58 -47 106 -44
121 3 28 9 28 124 15 l61 -7 34 72 c32 70 58 94 87 83 6 -3 12 -15 12 -27 0
-24 50 -132 82 -178 24 -34 39 -35 74 -5 31 27 29 43 -20 114 -17 27 -43 68
-55 93 -13 25 -37 70 -52 99 -16 30 -36 78 -44 107 -8 28 -22 55 -31 58 -21 8
-19 9 -36 -11z"/>
<path d="M3452 2007 c-45 -14 -118 -81 -144 -131 -17 -32 -22 -59 -22 -121 -1
-72 2 -85 30 -129 19 -32 52 -65 89 -90 55 -38 66 -41 136 -44 86 -4 114 6
180 65 52 47 80 103 86 172 10 109 -38 199 -137 259 -47 28 -63 32 -120 31
-36 -1 -80 -6 -98 -12z m145 -98 c53 -20 113 -98 113 -148 0 -40 -32 -100 -68
-128 -31 -23 -48 -28 -107 -31 -62 -2 -73 0 -97 21 -38 35 -58 80 -58 132 0
56 18 92 65 134 28 25 45 31 80 31 24 0 56 -5 72 -11z"/>
<path d="M2925 1737 c-65 -26 -197 -101 -202 -115 -3 -8 14 -53 39 -101 187
-361 181 -351 204 -351 13 0 28 8 33 18 9 18 88 62 110 62 43 0 131 72 131
108 0 13 5 33 11 44 8 14 8 23 0 31 -6 6 -11 21 -11 32 0 26 -25 51 -67 66
-26 9 -35 21 -54 75 -13 36 -31 70 -41 75 -10 5 -18 15 -18 22 0 31 -87 53
-135 34z m89 -93 c27 -27 20 -82 -15 -114 -43 -41 -64 -45 -102 -19 -67 48
-71 68 -21 115 29 28 43 34 79 34 26 0 50 -6 59 -16z m134 -201 c14 -20 16
-48 3 -72 -18 -33 -93 -101 -112 -101 -27 0 -69 21 -69 35 0 7 -9 20 -20 30
-28 25 -25 41 13 75 59 54 155 71 185 33z"/>
<path d="M5537 5696 c-107 -44 -122 -61 -151 -174 -21 -85 -20 -194 4 -322 27
-145 32 -161 74 -274 150 -401 440 -764 748 -934 80 -45 108 -42 213 20 159
94 198 157 204 328 4 125 -7 196 -58 355 -46 148 -53 151 -134 66 -63 -66 -70
-95 -43 -168 23 -60 46 -177 46 -232 0 -59 -25 -127 -51 -141 -67 -36 -213 44
-366 201 -39 41 -87 94 -105 119 -118 159 -243 381 -279 497 -12 37 -30 95
-41 128 -22 66 -35 212 -24 269 8 43 51 86 85 86 48 0 186 -87 281 -177 25
-24 50 -43 56 -43 20 0 104 113 104 140 0 18 -80 98 -149 149 -115 85 -231
131 -324 131 -18 0 -58 -11 -90 -24z"/>
<path d="M5060 5420 c-25 -16 -75 -48 -112 -70 -127 -76 -123 -70 -123 -207 0
-123 8 -166 64 -340 119 -369 436 -839 703 -1041 150 -113 207 -126 309 -70
32 18 60 40 62 50 3 10 13 18 22 18 17 0 126 57 178 92 15 11 27 26 27 33 0
15 -56 47 -121 70 -46 17 -160 98 -258 184 -107 94 -239 247 -318 367 -66 99
-84 127 -144 224 -44 69 -97 203 -129 325 -16 61 -32 119 -35 130 -4 12 -12
75 -18 140 -12 117 -13 120 -37 122 -14 1 -45 -11 -70 -27z"/>
<path d="M6518 5266 c-133 -107 -239 -159 -471 -230 -103 -32 -143 -61 -132
-95 15 -49 132 -65 267 -37 98 21 214 81 273 141 47 48 154 214 169 263 13 39
-24 25 -106 -42z"/>
<path d="M5975 4770 c-13 -21 61 -120 91 -120 26 0 70 28 103 65 17 20 31 39
31 44 0 4 -37 11 -82 14 -112 9 -136 9 -143 -3z"/>
</g>
</svg>
