<?xml version="1.0" standalone="no"?>
<!DOCTYPE svg PUBLIC "-//W3C//DTD SVG 20010904//EN"
 "http://www.w3.org/TR/2001/REC-SVG-20010904/DTD/svg10.dtd">
<svg version="1.0" xmlns="http://www.w3.org/2000/svg"
 width="512.000000pt" height="512.000000pt" viewBox="0 0 512.000000 512.000000"
 preserveAspectRatio="xMidYMid meet">

<g transform="translate(0.000000,512.000000) scale(0.100000,-0.100000)"
fill="#000000" stroke="none">
<path d="M3029 4957 c-20 -13 -44 -43 -59 -74 -14 -29 -42 -73 -64 -99 -37
-44 -41 -46 -78 -40 -94 15 -154 -25 -222 -147 -76 -136 -112 -292 -104 -456
4 -87 9 -108 40 -173 111 -233 356 -364 558 -299 41 13 115 25 200 31 74 5
148 12 165 15 19 3 68 -8 139 -31 92 -31 118 -44 159 -83 27 -25 55 -58 63
-73 14 -26 19 -78 9 -78 -3 0 -33 11 -66 25 -175 71 -308 49 -424 -69 -27 -28
-70 -63 -95 -78 -25 -15 -58 -38 -74 -51 l-30 -24 -81 37 c-107 50 -242 95
-368 122 -88 19 -132 22 -322 22 -190 0 -234 -3 -322 -22 -512 -112 -924 -425
-1150 -877 -57 -112 -125 -317 -149 -450 -29 -152 -26 -471 5 -615 48 -227
147 -457 274 -637 81 -115 268 -301 384 -383 326 -228 717 -336 1089 -302 161
15 247 33 395 82 575 191 994 678 1100 1279 32 177 29 418 -7 592 -4 23 6 35
93 105 54 44 123 99 154 122 173 131 195 336 64 597 -25 50 -45 99 -45 110 0
11 16 65 36 120 24 67 35 117 35 155 2 249 0 278 -24 344 -66 179 -236 374
-352 402 -16 4 -47 21 -68 37 -54 42 -150 75 -259 88 -51 6 -95 13 -97 15 -2
1 2 33 9 70 16 85 8 202 -19 278 -48 136 -153 264 -236 289 -39 11 -51 20 -59
43 -19 52 -35 71 -70 88 -47 22 -87 20 -127 -7z m92 -194 c40 -91 59 -156 59
-210 0 -29 4 -53 9 -53 21 0 62 79 69 135 l7 59 41 -50 c70 -83 97 -147 102
-241 4 -70 0 -96 -22 -165 -14 -46 -29 -88 -33 -95 -14 -20 -81 -21 -87 0 -2
6 -16 47 -31 90 -25 72 -29 77 -44 62 -23 -20 -28 -19 -35 8 -3 13 -35 53 -71
89 -47 47 -65 73 -65 92 0 35 -14 33 -44 -7 -57 -75 -69 -156 -42 -304 7 -40
10 -73 7 -73 -3 1 -17 7 -31 15 -60 34 -64 10 -19 -106 34 -89 72 -139 138
-180 l43 -28 -27 -7 c-79 -20 -223 34 -293 110 -23 24 -55 73 -73 108 -45 87
-51 203 -19 334 24 96 65 194 97 233 l20 25 21 -46 c11 -25 23 -56 27 -67 10
-31 21 -26 45 23 12 24 51 76 87 117 35 41 81 98 100 127 20 28 37 52 39 52 2
0 13 -21 25 -47z m233 -783 c97 -85 124 -116 112 -127 -2 -3 -55 -7 -118 -10
-134 -6 -183 4 -232 50 -64 61 -57 129 17 167 71 36 100 26 221 -80z m151 79
c53 -14 159 -122 204 -208 l33 -63 -33 7 c-100 22 -138 45 -250 155 -86 85
-106 109 -92 113 34 9 98 7 138 -4z m218 -33 c49 -18 104 -61 128 -100 41 -66
99 -306 72 -295 -23 9 -87 93 -128 168 -64 115 -90 156 -132 201 l-35 40 28 0
c16 -1 46 -7 67 -14z m281 -169 l80 -73 -2 -56 c-2 -92 -60 -305 -92 -341 -4
-5 -10 76 -12 180 -4 190 -12 230 -62 346 -15 32 9 17 88 -56z m169 -238 c45
-128 -6 -292 -127 -413 -53 -53 -166 -129 -166 -111 0 15 68 137 111 198 55
79 99 184 125 305 11 45 23 81 28 79 6 -2 19 -28 29 -58z m-502 -255 c61 -18
199 -99 199 -117 0 -26 -61 -118 -73 -111 -7 4 -30 20 -52 34 -68 46 -125 71
-153 68 -26 -3 -27 -5 -27 -64 0 -152 212 -449 397 -558 56 -33 122 -56 135
-48 31 20 22 103 -24 204 l-26 58 39 56 c21 30 42 58 46 60 11 7 86 -154 103
-221 31 -123 17 -193 -54 -268 -61 -66 -120 -73 -214 -26 -88 45 -140 82 -224
163 -176 166 -287 363 -313 556 -13 96 -3 144 38 183 50 48 113 57 203 31z
m-1182 -64 c183 -16 346 -57 492 -122 l67 -30 -24 -41 c-47 -82 -26 -213 62
-392 64 -130 163 -263 294 -395 182 -184 305 -259 421 -260 41 0 58 -4 62 -15
16 -39 29 -240 22 -335 -13 -209 -58 -382 -150 -577 -200 -424 -585 -722
-1065 -824 -150 -33 -439 -33 -586 -1 -649 140 -1113 633 -1205 1281 -19 133
-6 411 24 541 73 305 215 554 437 763 249 234 566 376 907 406 48 5 97 9 108
10 11 0 71 -4 134 -9z m1686 -72 c-22 -86 -81 -203 -118 -234 -86 -73 -227
-107 -277 -66 -34 28 -22 40 114 109 89 47 126 73 186 133 42 41 82 90 90 109
21 51 23 22 5 -51z m-824 -181 c45 -134 131 -269 258 -401 127 -131 268 -226
398 -266 l56 -17 -108 -87 c-59 -47 -118 -89 -132 -92 -13 -4 -45 1 -71 11
-174 65 -432 333 -548 568 -46 95 -92 265 -78 290 5 8 50 48 99 87 l90 72 7
-51 c5 -28 17 -79 29 -114z m622 -198 c-18 -31 -68 -79 -82 -79 -3 0 -29 20
-56 44 l-50 44 50 7 c28 3 57 8 65 9 8 2 32 4 53 5 l38 1 -18 -31z"/>
<path d="M2135 3130 c-423 -84 -781 -354 -974 -733 -132 -260 -179 -577 -122
-837 23 -108 41 -149 41 -93 0 80 23 298 40 384 60 295 193 542 405 754 270
270 567 406 951 435 116 9 358 -1 408 -16 13 -4 17 -2 14 7 -7 20 -160 75
-275 98 -132 27 -356 28 -488 1z"/>
<path d="M2330 2704 c-78 -21 -145 -62 -405 -243 -256 -179 -282 -200 -302
-250 -20 -46 -18 -132 3 -173 22 -44 740 -1075 772 -1110 37 -40 101 -61 166
-56 61 5 35 -11 437 269 252 176 314 235 365 344 35 75 64 198 64 267 0 73
-28 179 -67 258 -47 96 -141 191 -238 242 -68 36 -71 39 -88 93 -51 165 -222
316 -408 360 -80 19 -227 18 -299 -1z m221 -194 c169 -32 282 -146 310 -316
l13 -74 40 -10 c163 -41 245 -114 288 -253 25 -85 22 -198 -9 -268 -39 -88
-84 -126 -469 -391 l-181 -126 -364 524 c-200 288 -364 527 -363 531 1 10 459
328 504 350 33 16 125 40 161 42 9 1 41 -4 70 -9z"/>
<path d="M2330 2154 c-47 -31 -86 -58 -88 -59 -5 -5 123 -184 132 -185 11 0
103 66 143 104 39 36 51 82 30 122 -22 44 -51 65 -94 71 -34 4 -48 -2 -123
-53z"/>
<path d="M2722 1806 c-94 -55 -192 -129 -185 -140 5 -8 105 -155 119 -175 2
-2 18 7 36 20 197 135 216 156 204 222 -8 43 -53 86 -97 93 -25 3 -46 -2 -77
-20z"/>
<path d="M1351 1901 c-80 -59 -146 -112 -148 -117 -4 -13 109 -167 138 -188
13 -9 41 -16 62 -16 53 0 112 56 104 98 -5 26 -5 27 37 24 38 -3 46 0 70 29
41 49 32 90 -42 191 -32 45 -63 83 -68 84 -5 1 -74 -46 -153 -105z m174 -55
c16 -29 17 -37 6 -50 -19 -23 -37 -20 -66 12 l-26 27 26 23 c34 29 39 28 60
-12z m-99 -114 c7 -25 -10 -52 -33 -52 -13 0 -73 58 -73 70 0 3 15 15 33 28
l32 22 17 -22 c10 -13 21 -33 24 -46z"/>
<path d="M1600 1651 c-129 -96 -141 -109 -147 -164 -13 -117 126 -234 220
-186 36 19 227 160 227 168 0 3 -13 22 -28 41 l-29 34 -74 -54 c-118 -86 -141
-100 -160 -100 -29 0 -59 36 -59 70 0 27 12 39 110 111 l110 81 -27 39 c-16
21 -30 39 -33 39 -3 0 -52 -36 -110 -79z"/>
<path d="M1850 1363 c-14 -9 -30 -24 -37 -33 -19 -23 -15 -83 7 -140 24 -61
25 -89 4 -97 -37 -14 -84 73 -54 103 12 12 -33 79 -53 79 -17 0 -57 -64 -57
-92 0 -59 61 -147 124 -180 41 -22 88 -9 125 33 40 45 40 62 -2 179 -17 44
-13 65 13 65 30 0 53 -36 46 -71 -4 -24 0 -38 20 -65 26 -33 28 -34 46 -18 43
39 40 119 -7 180 -53 69 -124 92 -175 57z"/>
<path d="M1978 1032 c-81 -59 -147 -110 -148 -115 0 -9 43 -77 50 -77 3 0 45
30 93 66 49 36 85 59 81 52 -4 -7 -34 -53 -65 -102 -56 -87 -57 -90 -41 -112
9 -13 22 -23 27 -24 6 0 58 13 118 28 59 16 107 28 107 27 0 0 -40 -29 -90
-64 -96 -68 -95 -66 -52 -120 l20 -24 138 101 c77 55 148 107 158 115 18 13
18 16 -15 60 -33 45 -36 47 -73 41 -21 -4 -76 -16 -122 -29 -46 -12 -84 -20
-84 -18 0 2 29 50 64 107 l64 103 -31 46 c-18 26 -36 46 -42 46 -5 0 -76 -48
-157 -107z"/>
</g>
</svg>
