<?xml version="1.0" standalone="no"?>
<!DOCTYPE svg PUBLIC "-//W3C//DTD SVG 20010904//EN"
 "http://www.w3.org/TR/2001/REC-SVG-20010904/DTD/svg10.dtd">
<svg version="1.0" xmlns="http://www.w3.org/2000/svg"
 width="256.000000pt" height="256.000000pt" viewBox="0 0 256.000000 256.000000"
 preserveAspectRatio="xMidYMid meet">
<metadata>
Created by potrace 1.14, written by Peter Selinger 2001-2017
</metadata>
<g transform="translate(0.000000,256.000000) scale(0.100000,-0.100000)"
fill="#000000" stroke="none">
<path d="M1940 2311 c0 -11 -5 -21 -12 -23 -17 -6 -1 -39 22 -45 11 -3 20 -9
20 -14 0 -20 25 -2 42 30 10 19 17 35 15 36 -1 1 -14 9 -29 18 -36 22 -58 22
-58 -2z"/>
<path d="M2128 2307 c-29 -45 -28 -53 11 -75 l37 -21 17 28 c24 42 21 55 -17
74 -33 15 -35 15 -48 -6z"/>
<path d="M1702 2231 c-12 -28 -14 -29 -40 -15 -37 19 -50 18 -58 -8 -7 -23
-34 -55 -34 -41 0 5 -13 14 -29 20 -31 11 -51 2 -51 -24 0 -7 -4 -13 -9 -13
-5 0 -11 -10 -14 -22 -4 -13 -12 -32 -20 -42 -14 -19 -16 -19 -68 11 -65 36
-92 47 -84 33 3 -6 2 -10 -3 -10 -5 0 -12 -8 -15 -17 -11 -32 -87 -168 -94
-166 -3 1 -9 5 -12 10 -3 4 -17 14 -30 22 -22 12 -26 11 -42 -10 -10 -13 -19
-29 -19 -36 0 -23 -21 -24 -58 -1 -20 12 -40 22 -44 20 -5 -1 -8 2 -8 6 0 5
-11 14 -24 20 -25 11 -46 0 -46 -25 0 -7 -4 -13 -10 -13 -5 0 -10 -9 -10 -20
0 -24 -11 -25 -50 -5 -30 16 -60 11 -60 -9 0 -7 -6 -20 -13 -30 -13 -18 -17
-17 -73 14 -32 18 -64 36 -69 41 -6 4 -18 -10 -30 -37 -11 -24 -23 -44 -27
-44 -4 0 -17 -18 -29 -40 -13 -22 -28 -38 -33 -35 -6 3 -19 8 -29 11 -9 4 -17
10 -17 15 0 5 -7 6 -15 3 -8 -4 -15 -12 -15 -19 0 -7 -3 -15 -7 -17 -5 -1 -19
-25 -33 -53 -37 -73 -39 -75 -77 -54 -32 18 -33 18 -45 -4 -7 -12 -11 -25 -10
-29 1 -5 -3 -8 -8 -8 -6 0 -10 -7 -10 -15 0 -8 -4 -15 -9 -15 -5 0 -13 -10
-17 -22 -4 -13 -9 -25 -13 -28 -6 -5 -16 -23 -60 -105 -9 -16 -19 -31 -23 -33
-5 -2 -8 -12 -8 -23 0 -10 -4 -19 -9 -19 -5 0 -13 -10 -17 -22 -3 -13 -15 -35
-25 -49 -19 -27 -19 -27 6 -43 13 -9 29 -16 35 -16 14 0 13 -4 -15 -54 -32
-57 -31 -67 5 -88 28 -16 40 -38 21 -38 -5 0 -12 -11 -15 -25 -4 -14 -11 -25
-16 -25 -5 0 -7 -7 -4 -15 4 -8 1 -15 -6 -15 -6 0 -8 -5 -4 -11 3 -6 3 -14 -2
-18 -5 -3 -15 -16 -22 -28 -10 -19 -10 -23 3 -23 8 0 15 -4 15 -9 0 -5 12 -12
26 -15 14 -4 31 -11 37 -17 7 -5 21 -16 32 -23 19 -14 19 -15 2 -33 -9 -11
-17 -25 -17 -31 0 -7 -4 -12 -10 -12 -20 0 3 -28 37 -44 20 -10 33 -21 27 -24
-10 -7 -44 -66 -44 -76 0 -6 42 -29 107 -60 31 -14 32 -16 22 -45 -6 -17 -15
-34 -20 -37 -21 -12 -6 -34 39 -56 26 -13 49 -26 50 -30 2 -5 10 -8 17 -8 8 0
20 -6 27 -12 14 -13 18 -16 98 -59 25 -13 47 -26 50 -29 6 -6 35 -23 112 -63
35 -17 64 -35 66 -39 2 -5 8 -8 13 -8 5 0 41 -18 80 -40 67 -38 71 -39 76 -20
3 11 9 20 13 20 4 0 10 9 13 21 4 17 10 19 29 14 13 -4 25 -10 28 -14 3 -3 28
-18 56 -33 l51 -28 23 44 22 44 32 -19 c34 -21 56 -24 56 -9 0 5 8 23 18 39
l18 30 39 -20 c39 -21 54 -16 55 19 0 6 5 12 10 12 6 0 10 7 10 15 0 19 8 19
44 0 29 -15 46 -13 46 8 1 7 9 22 20 35 16 19 22 21 44 11 14 -7 26 -16 26
-21 0 -17 25 16 45 59 21 46 35 52 59 28 19 -19 36 -19 36 0 0 8 5 15 10 15 6
0 10 6 10 14 0 7 7 19 15 26 8 7 15 21 15 30 0 10 3 20 8 22 9 4 92 147 92
159 0 5 5 9 12 9 6 0 9 3 5 6 -3 4 7 26 23 49 16 23 26 45 23 49 -4 3 -1 6 5
6 7 0 12 7 12 15 0 8 -7 15 -15 15 -8 0 -15 5 -15 10 0 6 -7 10 -16 10 -11 0
-6 16 22 68 20 37 42 75 48 85 8 14 8 20 -4 27 -51 32 -55 46 -23 78 22 23 15
47 -18 59 l-31 12 19 33 c10 18 21 35 26 36 15 7 6 20 -28 36 -38 18 -43 32
-20 62 19 25 19 54 0 54 -8 0 -15 5 -15 10 0 6 -7 10 -15 10 -15 0 -21 35 -7
42 4 2 14 16 24 32 l16 30 -71 44 c-40 25 -73 46 -75 47 -3 3 18 45 28 55 17
17 7 39 -20 48 -16 6 -30 16 -30 23 0 11 59 128 70 139 3 3 11 15 18 28 14 26
2 52 -24 52 -8 0 -14 4 -14 9 0 5 -12 12 -26 15 -15 4 -33 13 -40 21 -15 15
-19 35 -6 35 4 0 15 17 25 38 39 79 34 79 137 18 51 -31 98 -57 104 -59 7 -3
5 -14 -6 -35 -22 -37 -23 -52 -3 -52 8 0 15 -4 15 -10 0 -5 7 -10 15 -10 8 0
15 -9 15 -20 0 -11 -4 -20 -9 -20 -5 0 -11 -9 -14 -19 -5 -20 -5 -20 -42 -1
-44 22 -47 20 -88 -59 -21 -41 -25 -57 -16 -67 6 -8 18 -14 25 -14 8 0 14 -4
14 -8 0 -24 31 -4 49 32 12 23 27 50 34 61 7 11 13 22 14 24 2 2 18 -4 37 -14
27 -15 33 -22 24 -32 -6 -7 -7 -13 -4 -13 4 0 -2 -13 -13 -29 -12 -16 -21 -34
-21 -40 0 -6 -4 -11 -10 -11 -23 0 -8 -40 19 -55 34 -17 52 -13 66 14 45 87
61 117 66 121 3 3 11 15 18 28 12 22 13 22 41 5 34 -20 35 -22 15 -49 -22 -30
-18 -50 15 -64 28 -12 40 -34 21 -42 -4 -1 -11 -13 -15 -25 -6 -18 -1 -25 28
-38 34 -16 62 -13 51 6 -4 5 -2 9 3 9 15 0 21 37 9 49 -6 6 -19 11 -29 11 -22
0 -22 7 -3 53 14 35 14 37 -8 48 -32 17 -36 27 -24 60 11 27 47 42 47 19 0 -5
11 -12 25 -16 14 -3 25 -9 25 -13 0 -4 12 -12 28 -18 15 -6 41 -21 59 -33 l32
-22 21 34 c11 18 18 38 17 43 -2 6 -21 20 -43 32 -21 12 -43 25 -49 30 -5 4
-27 17 -48 28 -49 26 -51 29 -32 64 l15 31 36 -18 c39 -18 38 -19 70 35 9 14
14 15 25 7 8 -7 24 -15 36 -18 18 -6 25 -1 37 23 22 41 21 45 -19 64 l-34 16
-18 -29 c-20 -35 -27 -36 -68 -9 -16 10 -37 22 -45 26 -37 18 -39 27 -12 78
15 28 30 52 35 53 19 9 4 41 -29 58 -35 19 -36 19 -50 0 -8 -11 -14 -26 -14
-33 0 -7 -4 -13 -8 -13 -5 0 -14 -16 -22 -35 -8 -19 -17 -35 -22 -35 -11 0
-132 63 -139 73 -3 4 -15 -11 -27 -32 l-23 -40 -52 27 c-28 15 -57 32 -64 39
-7 6 -26 17 -43 25 -16 7 -30 16 -30 20 0 5 -8 8 -17 8 -10 0 -27 7 -37 15
-32 24 -60 18 -74 -14z"/>
</g>
</svg>
